<svg width="3080" height="1000" viewBox="0 0 3080 1000" fill="none" xmlns="http://www.w3.org/2000/svg">
<path d="M341 921.501C114 788.999 19.4999 689.499 0 516.499L90.5 465.499C97.9163 602.428 135 661.499 248.5 749.499C243.3 681.498 246.333 295.499 248.5 110.999C190.823 117.424 156.077 128.026 91.5 154.499V348.999L0 403.499V86.9991C123 34.4993 195.5 17.4991 341 0.499146V921.501Z" fill="#F5F5F5"/>
<path d="M369.5 0C538.459 4.58828 633.992 18.1371 807 88.5V213.5L717 273.5L714.5 153.5C648.26 128.35 613.378 118.046 557 109.5V474.5L512 518.5L465 474.5V96C455.062 93.8825 438.004 93.0107 369.5 92.5V0Z" fill="#C7A24D"/>
<path d="M675.5 478.5L655.5 455L514.5 599L447 537.5L365.5 623V557L447 476.5L514.5 540L624 427L601 405.5L695.5 381.5L675.5 478.5Z" fill="#C7A24D"/>
<g filter="url(#filter0_d_9_78)">
<path d="M807.999 281.5C807.999 480 826 583 733 712C675.626 785.554 623 827.5 403 963.5L366.5 938.5V645L445.5 563.5V831C455.341 825.395 460.232 821.831 467.5 814.5V576.5L515.5 618L557 578L559.5 752.5C568.843 746.002 573.618 742.003 581 734V552.5L658.5 471V658C716 568 720.5 551.5 715.5 343L807.999 281.5Z" fill="#C7A24D"/>
</g>
<path d="M1012.59 355.392C995.268 355.392 979.286 352.22 964.646 345.876C950.25 339.288 938.416 330.016 929.144 318.06L962.084 278.532C969.16 287.804 976.602 294.88 984.41 299.76C992.218 304.396 1000.64 306.714 1009.66 306.714C1033.82 306.714 1045.9 292.562 1045.9 264.258V142.38H955.862V94.8H1104.82V260.964C1104.82 292.684 1097.02 316.352 1081.4 331.968C1065.78 347.584 1042.85 355.392 1012.59 355.392ZM1364.03 351V143.112H1282.05V94.8H1505.31V143.112H1423.32V351H1364.03ZM1734.85 94.8H1794.14V351H1734.85V94.8ZM1618.46 351H1559.17V94.8H1618.46V351ZM1739.24 245.958H1614.07V195.816H1739.24V245.958ZM2001.16 355.392C1980.91 355.392 1962.12 352.098 1944.79 345.51C1927.71 338.922 1912.83 329.65 1900.14 317.694C1887.7 305.738 1877.94 291.708 1870.86 275.604C1864.03 259.5 1860.61 241.932 1860.61 222.9C1860.61 203.868 1864.03 186.3 1870.86 170.196C1877.94 154.092 1887.82 140.062 1900.51 128.106C1913.2 116.15 1928.08 106.878 1945.16 100.29C1962.24 93.702 1980.78 90.408 2000.79 90.408C2021.04 90.408 2039.59 93.702 2056.42 100.29C2073.5 106.878 2088.27 116.15 2100.71 128.106C2113.4 140.062 2123.28 154.092 2130.36 170.196C2137.43 186.056 2140.97 203.624 2140.97 222.9C2140.97 241.932 2137.43 259.622 2130.36 275.97C2123.28 292.074 2113.4 306.104 2100.71 318.06C2088.27 329.772 2073.5 338.922 2056.42 345.51C2039.59 352.098 2021.17 355.392 2001.16 355.392ZM2000.79 304.884C2012.26 304.884 2022.75 302.932 2032.27 299.028C2042.03 295.124 2050.57 289.512 2057.89 282.192C2065.21 274.872 2070.82 266.21 2074.72 256.206C2078.87 246.202 2080.95 235.1 2080.95 222.9C2080.95 210.7 2078.87 199.598 2074.72 189.594C2070.82 179.59 2065.21 170.928 2057.89 163.608C2050.81 156.288 2042.39 150.676 2032.63 146.772C2022.87 142.868 2012.26 140.916 2000.79 140.916C1989.32 140.916 1978.71 142.868 1968.95 146.772C1959.43 150.676 1951.02 156.288 1943.7 163.608C1936.38 170.928 1930.64 179.59 1926.49 189.594C1922.59 199.598 1920.64 210.7 1920.64 222.9C1920.64 234.856 1922.59 245.958 1926.49 256.206C1930.64 266.21 1936.25 274.872 1943.33 282.192C1950.65 289.512 1959.19 295.124 1968.95 299.028C1978.71 302.932 1989.32 304.884 2000.79 304.884ZM2207.49 351V94.8H2256.53L2365.6 275.604H2339.62L2446.85 94.8H2495.53L2496.26 351H2440.63L2440.27 180.078H2450.51L2364.87 323.916H2338.15L2250.68 180.078H2263.12V351H2207.49ZM2545.34 351L2659.53 94.8H2718.09L2832.65 351H2770.43L2676.73 124.812H2700.16L2606.09 351H2545.34ZM2602.43 296.1L2618.17 251.082H2749.93L2766.04 296.1H2602.43ZM2965.37 355.392C2944.87 355.392 2925.23 352.708 2906.44 347.34C2887.65 341.728 2872.53 334.53 2861.06 325.746L2881.19 281.094C2892.17 288.902 2905.1 295.368 2919.98 300.492C2935.11 305.372 2950.36 307.812 2965.73 307.812C2977.45 307.812 2986.84 306.714 2993.92 304.518C3001.24 302.078 3006.6 298.784 3010.02 294.636C3013.44 290.488 3015.14 285.73 3015.14 280.362C3015.14 273.53 3012.46 268.162 3007.09 264.258C3001.72 260.11 2994.65 256.816 2985.86 254.376C2977.08 251.692 2967.32 249.252 2956.58 247.056C2946.09 244.616 2935.48 241.688 2924.74 238.272C2914.25 234.856 2904.61 230.464 2895.83 225.096C2887.04 219.728 2879.85 212.652 2874.23 203.868C2868.87 195.084 2866.18 183.86 2866.18 170.196C2866.18 155.556 2870.09 142.258 2877.89 130.302C2885.95 118.102 2897.9 108.464 2913.76 101.388C2929.87 94.068 2950 90.408 2974.15 90.408C2990.26 90.408 3006.12 92.36 3021.73 96.264C3037.35 99.924 3051.13 105.536 3063.09 113.1L3044.79 158.118C3032.83 151.286 3020.88 146.284 3008.92 143.112C2996.97 139.696 2985.25 137.988 2973.79 137.988C2962.32 137.988 2952.92 139.33 2945.6 142.014C2938.28 144.698 2933.04 148.236 2929.87 152.628C2926.69 156.776 2925.11 161.656 2925.11 167.268C2925.11 173.856 2927.79 179.224 2933.16 183.372C2938.53 187.276 2945.6 190.448 2954.39 192.888C2963.17 195.328 2972.81 197.768 2983.3 200.208C2994.04 202.648 3004.65 205.454 3015.14 208.626C3025.88 211.798 3035.64 216.068 3044.42 221.436C3053.21 226.804 3060.28 233.88 3065.65 242.664C3071.26 251.448 3074.07 262.55 3074.07 275.97C3074.07 290.366 3070.04 303.542 3061.99 315.498C3053.94 327.454 3041.86 337.092 3025.76 344.412C3009.9 351.732 2989.77 355.392 2965.37 355.392Z" fill="#F5F5F5"/>
<path d="M994.278 653.09H1117.25V700.67H994.278V653.09ZM998.67 794H939.378V537.8H1132.99V585.38H998.67V794ZM1180.45 794V537.8H1239.74V794H1180.45ZM1307.87 794V537.8H1356.91L1508.07 722.264H1484.28V537.8H1542.84V794H1494.16L1342.64 609.536H1366.43V794H1307.87ZM1577.1 794L1691.29 537.8H1749.85L1864.41 794H1802.19L1708.5 567.812H1731.92L1637.86 794H1577.1ZM1634.2 739.1L1649.94 694.082H1781.7L1797.8 739.1H1634.2ZM1898.31 794V537.8H1947.36L2098.51 722.264H2074.72V537.8H2133.28V794H2084.61L1933.08 609.536H1956.87V794H1898.31ZM2323.83 798.392C2304.07 798.392 2285.64 795.22 2268.56 788.876C2251.73 782.288 2237.09 773.016 2224.64 761.06C2212.2 749.104 2202.44 735.074 2195.36 718.97C2188.53 702.866 2185.12 685.176 2185.12 665.9C2185.12 646.624 2188.53 628.934 2195.36 612.83C2202.44 596.726 2212.2 582.696 2224.64 570.74C2237.33 558.784 2252.09 549.634 2268.93 543.29C2285.77 536.702 2304.19 533.408 2324.2 533.408C2346.4 533.408 2366.41 537.312 2384.22 545.12C2402.28 552.684 2417.4 563.908 2429.6 578.792L2391.54 613.928C2382.76 603.924 2373 596.482 2362.26 591.602C2351.52 586.478 2339.81 583.916 2327.12 583.916C2315.17 583.916 2304.19 585.868 2294.18 589.772C2284.18 593.676 2275.52 599.288 2268.2 606.608C2260.88 613.928 2255.14 622.59 2251 632.594C2247.09 642.598 2245.14 653.7 2245.14 665.9C2245.14 678.1 2247.09 689.202 2251 699.206C2255.14 709.21 2260.88 717.872 2268.2 725.192C2275.52 732.512 2284.18 738.124 2294.18 742.028C2304.19 745.932 2315.17 747.884 2327.12 747.884C2339.81 747.884 2351.52 745.444 2362.26 740.564C2373 735.44 2382.76 727.754 2391.54 717.506L2429.6 752.642C2417.4 767.526 2402.28 778.872 2384.22 786.68C2366.41 794.488 2346.28 798.392 2323.83 798.392ZM2476.96 794V537.8H2536.26V794H2476.96ZM2570.71 794L2684.9 537.8H2743.46L2858.02 794H2795.8L2702.1 567.812H2725.52L2631.46 794H2570.71ZM2627.8 739.1L2643.54 694.082H2775.3L2791.4 739.1H2627.8ZM2891.92 794V537.8H2951.21V745.688H3079.67V794H2891.92Z" fill="#C7A24D"/>
<defs>
<filter id="filter0_d_9_78" x="362.5" y="281.5" width="450.901" height="690" filterUnits="userSpaceOnUse" color-interpolation-filters="sRGB">
<feFlood flood-opacity="0" result="BackgroundImageFix"/>
<feColorMatrix in="SourceAlpha" type="matrix" values="0 0 0 0 0 0 0 0 0 0 0 0 0 0 0 0 0 0 127 0" result="hardAlpha"/>
<feOffset dy="4"/>
<feGaussianBlur stdDeviation="2"/>
<feComposite in2="hardAlpha" operator="out"/>
<feColorMatrix type="matrix" values="0 0 0 0 0 0 0 0 0 0 0 0 0 0 0 0 0 0 0.25 0"/>
<feBlend mode="normal" in2="BackgroundImageFix" result="effect1_dropShadow_9_78"/>
<feBlend mode="normal" in="SourceGraphic" in2="effect1_dropShadow_9_78" result="shape"/>
</filter>
</defs>
</svg>
