<svg width="2177" height="2322" viewBox="0 0 2177 2322" fill="none" xmlns="http://www.w3.org/2000/svg">
<path id="shield-left" pathLength="1" d="M1024.09 1458.86C702.404 1271.09 568.489 1130.09 540.856 884.93L669.103 812.658C679.613 1006.7 732.164 1090.41 893.004 1215.11C885.636 1118.75 889.934 571.751 893.004 310.297C811.271 319.401 762.032 334.426 670.52 371.941V647.566L540.856 724.798V276.287C715.159 201.89 817.898 177.799 1024.09 153.708V1458.86Z" fill="none" stroke="white" stroke-width="2"/>
<path id="letter-t" d="M1064.47 153C1303.9 159.502 1439.28 178.702 1684.45 278.413V455.55L1556.91 540.575L1553.37 370.524C1459.5 334.885 1410.07 320.283 1330.18 308.172V825.412L1266.41 887.765L1199.81 825.412V289.041C1185.72 286.04 1161.55 284.805 1064.47 284.081V153Z" fill="#C7A24D"/>
<path id="chart-arrow" d="M1498.1 831.08L1469.76 797.778L1269.95 1001.84L1174.3 914.689L1058.8 1035.85V942.322L1174.3 828.246L1269.95 918.231L1425.12 758.1L1392.53 727.632L1526.45 693.622L1498.1 831.08Z" fill="none" stroke="#C7A24D" stroke-width="3"/>
<g filter="url(#filter0_d_22_150)">
<path id="shield-right" pathLength="1" d="M1685.87 551.912C1685.87 833.206 1711.38 979.167 1579.59 1161.97C1498.28 1266.21 1423.71 1325.65 1111.95 1518.37L1060.22 1482.95V1067.03L1172.17 951.533V1330.61C1186.12 1322.66 1193.05 1317.61 1203.35 1307.22V969.956L1271.37 1028.77L1330.18 972.081L1333.72 1219.37C1346.96 1210.16 1353.73 1204.49 1364.19 1193.15V935.945L1474.01 820.452V1085.45C1555.5 957.911 1561.87 934.528 1554.79 639.063L1685.87 551.912Z" fill="none" stroke="#C7A24D" stroke-width="2"/>
</g>
<path id="j-thomas" d="M91.134 2176.09H214.11V2223.67H91.134V2176.09ZM95.526 2317H36.234V2060.8H229.848V2108.38H95.526V2317ZM277.308 2317V2060.8H336.6V2317H277.308ZM404.722 2317V2060.8H453.766L604.924 2245.26H581.134V2060.8H639.694V2317H591.016L439.492 2132.54H463.282V2317H404.722ZM673.958 2317L788.15 2060.8H846.71L961.268 2317H899.048L805.352 2090.81H828.776L734.714 2317H673.958ZM731.054 2262.1L746.792 2217.08H878.552L894.656 2262.1H731.054ZM995.168 2317V2060.8H1044.21L1195.37 2245.26H1171.58V2060.8H1230.14V2317H1181.46L1029.94 2132.54H1053.73V2317H995.168ZM1420.69 2321.39C1400.92 2321.39 1382.5 2318.22 1365.42 2311.88C1348.58 2305.29 1333.94 2296.02 1321.5 2284.06C1309.06 2272.1 1299.3 2258.07 1292.22 2241.97C1285.39 2225.87 1281.97 2208.18 1281.97 2188.9C1281.97 2169.62 1285.39 2151.93 1292.22 2135.83C1299.3 2119.73 1309.06 2105.7 1321.5 2093.74C1334.19 2081.78 1348.95 2072.63 1365.79 2066.29C1382.62 2059.7 1401.04 2056.41 1421.05 2056.41C1443.26 2056.41 1463.26 2060.31 1481.08 2068.12C1499.13 2075.68 1514.26 2086.91 1526.46 2101.79L1488.4 2136.93C1479.61 2126.92 1469.85 2119.48 1459.12 2114.6C1448.38 2109.48 1436.67 2106.92 1423.98 2106.92C1412.02 2106.92 1401.04 2108.87 1391.04 2112.77C1381.04 2116.68 1372.37 2122.29 1365.05 2129.61C1357.73 2136.93 1352 2145.59 1347.85 2155.59C1343.95 2165.6 1342 2176.7 1342 2188.9C1342 2201.1 1343.95 2212.2 1347.85 2222.21C1352 2232.21 1357.73 2240.87 1365.05 2248.19C1372.37 2255.51 1381.04 2261.12 1391.04 2265.03C1401.04 2268.93 1412.02 2270.88 1423.98 2270.88C1436.67 2270.88 1448.38 2268.44 1459.12 2263.56C1469.85 2258.44 1479.61 2250.75 1488.4 2240.51L1526.46 2275.64C1514.26 2290.53 1499.13 2301.87 1481.08 2309.68C1463.26 2317.49 1443.13 2321.39 1420.69 2321.39ZM1573.82 2317V2060.8H1633.11V2317H1573.82ZM1667.56 2317L1781.75 2060.8H1840.31L1954.87 2317H1892.65L1798.96 2090.81H1822.38L1728.32 2317H1667.56ZM1724.66 2262.1L1740.4 2217.08H1872.16L1888.26 2262.1H1724.66ZM1988.77 2317V2060.8H2048.06V2268.69H2176.53V2317H1988.77Z" fill="#C7A24D"/>
<path id="financial" d="M83.448 1921.39C66.124 1921.39 50.142 1918.22 35.502 1911.88C21.106 1905.29 9.27196 1896.02 -4.32469e-05 1884.06L32.94 1844.53C40.016 1853.8 47.458 1860.88 55.266 1865.76C63.074 1870.4 71.492 1872.71 80.52 1872.71C104.676 1872.71 116.754 1858.56 116.754 1830.26V1708.38H26.718V1660.8H175.68V1826.96C175.68 1858.68 167.872 1882.35 152.256 1897.97C136.64 1913.58 113.704 1921.39 83.448 1921.39ZM434.888 1917V1709.11H352.904V1660.8H576.164V1709.11H494.18V1917H434.888ZM805.706 1660.8H864.998V1917H805.706V1660.8ZM689.318 1917H630.026V1660.8H689.318V1917ZM810.098 1811.96H684.926V1761.82H810.098V1811.96ZM1072.01 1921.39C1051.76 1921.39 1032.97 1918.1 1015.65 1911.51C998.57 1904.92 983.686 1895.65 970.998 1883.69C958.554 1871.74 948.794 1857.71 941.718 1841.6C934.886 1825.5 931.47 1807.93 931.47 1788.9C931.47 1769.87 934.886 1752.3 941.718 1736.2C948.794 1720.09 958.676 1706.06 971.364 1694.11C984.052 1682.15 998.936 1672.88 1016.02 1666.29C1033.1 1659.7 1051.64 1656.41 1071.65 1656.41C1091.9 1656.41 1110.44 1659.7 1127.28 1666.29C1144.36 1672.88 1159.12 1682.15 1171.57 1694.11C1184.25 1706.06 1194.14 1720.09 1201.21 1736.2C1208.29 1752.06 1211.83 1769.62 1211.83 1788.9C1211.83 1807.93 1208.29 1825.62 1201.21 1841.97C1194.14 1858.07 1184.25 1872.1 1171.57 1884.06C1159.12 1895.77 1144.36 1904.92 1127.28 1911.51C1110.44 1918.1 1092.02 1921.39 1072.01 1921.39ZM1071.65 1870.88C1083.12 1870.88 1093.61 1868.93 1103.12 1865.03C1112.88 1861.12 1121.42 1855.51 1128.74 1848.19C1136.06 1840.87 1141.68 1832.21 1145.58 1822.21C1149.73 1812.2 1151.8 1801.1 1151.8 1788.9C1151.8 1776.7 1149.73 1765.6 1145.58 1755.59C1141.68 1745.59 1136.06 1736.93 1128.74 1729.61C1121.67 1722.29 1113.25 1716.68 1103.49 1712.77C1093.73 1708.87 1083.12 1706.92 1071.65 1706.92C1060.18 1706.92 1049.57 1708.87 1039.81 1712.77C1030.29 1716.68 1021.87 1722.29 1014.55 1729.61C1007.23 1736.93 1001.5 1745.59 997.35 1755.59C993.446 1765.6 991.494 1776.7 991.494 1788.9C991.494 1800.86 993.446 1811.96 997.35 1822.21C1001.5 1832.21 1007.11 1840.87 1014.19 1848.19C1021.51 1855.51 1030.05 1861.12 1039.81 1865.03C1049.57 1868.93 1060.18 1870.88 1071.65 1870.88ZM1278.35 1917V1660.8H1327.39L1436.46 1841.6H1410.47L1517.71 1660.8H1566.39L1567.12 1917H1511.49L1511.12 1746.08H1521.37L1435.73 1889.92H1409.01L1321.53 1746.08H1333.98V1917H1278.35ZM1616.19 1917L1730.39 1660.8H1788.95L1903.5 1917H1841.28L1747.59 1690.81H1771.01L1676.95 1917H1616.19ZM1673.29 1862.1L1689.03 1817.08H1820.79L1836.89 1862.1H1673.29ZM2036.22 1921.39C2015.73 1921.39 1996.09 1918.71 1977.3 1913.34C1958.51 1907.73 1943.38 1900.53 1931.91 1891.75L1952.04 1847.09C1963.02 1854.9 1975.96 1861.37 1990.84 1866.49C2005.97 1871.37 2021.22 1873.81 2036.59 1873.81C2048.3 1873.81 2057.7 1872.71 2064.77 1870.52C2072.09 1868.08 2077.46 1864.78 2080.88 1860.64C2084.29 1856.49 2086 1851.73 2086 1846.36C2086 1839.53 2083.32 1834.16 2077.95 1830.26C2072.58 1826.11 2065.5 1822.82 2056.72 1820.38C2047.94 1817.69 2038.18 1815.25 2027.44 1813.06C2016.95 1810.62 2006.33 1807.69 1995.6 1804.27C1985.11 1800.86 1975.47 1796.46 1966.68 1791.1C1957.9 1785.73 1950.7 1778.65 1945.09 1769.87C1939.72 1761.08 1937.04 1749.86 1937.04 1736.2C1937.04 1721.56 1940.94 1708.26 1948.75 1696.3C1956.8 1684.1 1968.76 1674.46 1984.62 1667.39C2000.72 1660.07 2020.85 1656.41 2045.01 1656.41C2061.11 1656.41 2076.97 1658.36 2092.59 1662.26C2108.2 1665.92 2121.99 1671.54 2133.95 1679.1L2115.65 1724.12C2103.69 1717.29 2091.73 1712.28 2079.78 1709.11C2067.82 1705.7 2056.11 1703.99 2044.64 1703.99C2033.17 1703.99 2023.78 1705.33 2016.46 1708.01C2009.14 1710.7 2003.89 1714.24 2000.72 1718.63C1997.55 1722.78 1995.96 1727.66 1995.96 1733.27C1995.96 1739.86 1998.65 1745.22 2004.02 1749.37C2009.38 1753.28 2016.46 1756.45 2025.24 1758.89C2034.03 1761.33 2043.67 1763.77 2054.16 1766.21C2064.89 1768.65 2075.51 1771.45 2086 1774.63C2096.74 1777.8 2106.5 1782.07 2115.28 1787.44C2124.06 1792.8 2131.14 1799.88 2136.51 1808.66C2142.12 1817.45 2144.93 1828.55 2144.93 1841.97C2144.93 1856.37 2140.9 1869.54 2132.85 1881.5C2124.8 1893.45 2112.72 1903.09 2096.61 1910.41C2080.75 1917.73 2060.62 1921.39 2036.22 1921.39Z" fill="white"/>
<defs>
<style>
  #shield-left {
    stroke-dasharray: 1;
    stroke-dashoffset: 1;
    animation:
      shieldTrace 1s ease-out forwards,
      shieldFillLeft 0.25s ease-out 1s forwards;
  }

  #shield-right {
    stroke-dasharray: 1;
    stroke-dashoffset: 1;
    animation:
      shieldTrace 1s ease-out 0.15s forwards,
      shieldFillRight 0.25s ease-out 1.15s forwards;
  }

  #chart-arrow {
    stroke-dasharray: 400;
    stroke-dashoffset: 400;
    transform-origin: center;
    animation:
      drawArrow 1.2s ease-out 1.4s forwards,
      fillIn 0.3s ease-out 2.6s forwards,
      lift 0.4s ease-out 2.9s forwards;
  }

  @keyframes shieldTrace {
    to {
      stroke-dashoffset: 0;
    }
  }

  @keyframes shieldFillLeft {
    from {
      fill: transparent;
      stroke-opacity: 1;
    }
    to {
      fill: white;
      stroke-opacity: 0;
    }
  }

  @keyframes shieldFillRight {
    from {
      fill: transparent;
      stroke-opacity: 1;
    }
    to {
      fill: #C7A24D;
      stroke-opacity: 0;
    }
  }

  @keyframes drawArrow {
    to {
      stroke-dashoffset: 0;
    }
  }

  @keyframes fillIn {
    from {
      fill: transparent;
      stroke-opacity: 1;
    }
    to {
      fill: #C7A24D;
      stroke-opacity: 0;
    }
  }

  @keyframes lift {
    from {
      transform: translateY(4px);
    }
    to {
      transform: translateY(0);
    }
  }
</style>
<filter id="filter0_d_22_150" x="1056.22" y="551.912" width="635.635" height="974.46" filterUnits="userSpaceOnUse" color-interpolation-filters="sRGB">
<feFlood flood-opacity="0" result="BackgroundImageFix"/>
<feColorMatrix in="SourceAlpha" type="matrix" values="0 0 0 0 0 0 0 0 0 0 0 0 0 0 0 0 0 0 127 0" result="hardAlpha"/>
<feOffset dy="4"/>
<feGaussianBlur stdDeviation="2"/>
<feComposite in2="hardAlpha" operator="out"/>
<feColorMatrix type="matrix" values="0 0 0 0 0 0 0 0 0 0 0 0 0 0 0 0 0 0 0.25 0"/>
<feBlend mode="normal" in2="BackgroundImageFix" result="effect1_dropShadow_22_150"/>
<feBlend mode="normal" in="SourceGraphic" in2="effect1_dropShadow_22_150" result="shape"/>
</filter>
</defs>
</svg>
