<svg width="840" height="1000" viewBox="0 0 840 1000" fill="none" xmlns="http://www.w3.org/2000/svg">
<path d="M341 921.501C114 788.999 19.4999 689.499 0 516.499L90.5 465.499C97.9163 602.428 135 661.499 248.5 749.499C243.3 681.498 246.333 295.499 248.5 110.999C190.823 117.424 156.077 128.026 91.5 154.499V348.999L0 403.499V86.9991C123 34.4993 195.5 17.4991 341 0.499146V921.501Z" fill="white"/>
<path d="M369.5 0C538.459 4.58828 633.992 18.1371 807 88.5V213.5L717 273.5L714.5 153.5C648.26 128.35 613.378 118.046 557 109.5V474.5L512 518.5L465 474.5V96C455.062 93.8825 438.004 93.0107 369.5 92.5V0Z" fill="#C7A24D"/>
<path d="M675.5 478.5L655.5 455L514.5 599L447 537.5L365.5 623V557L447 476.5L514.5 540L624 427L601 405.5L695.5 381.5L675.5 478.5Z" fill="#C7A24D"/>
<g filter="url(#filter0_d_9_74)">
<path d="M807.999 281.5C807.999 480 826 583 733 712C675.626 785.554 623 827.5 403 963.5L366.5 938.5V645L445.5 563.5V831C455.341 825.395 460.232 821.831 467.5 814.5V576.5L515.5 618L557 578L559.5 752.5C568.843 746.002 573.618 742.003 581 734V552.5L658.5 471V658C716 568 720.5 551.5 715.5 343L807.999 281.5Z" fill="#C7A24D"/>
</g>
<defs>
<filter id="filter0_d_9_74" x="362.5" y="281.5" width="450.901" height="690" filterUnits="userSpaceOnUse" color-interpolation-filters="sRGB">
<feFlood flood-opacity="0" result="BackgroundImageFix"/>
<feColorMatrix in="SourceAlpha" type="matrix" values="0 0 0 0 0 0 0 0 0 0 0 0 0 0 0 0 0 0 127 0" result="hardAlpha"/>
<feOffset dy="4"/>
<feGaussianBlur stdDeviation="2"/>
<feComposite in2="hardAlpha" operator="out"/>
<feColorMatrix type="matrix" values="0 0 0 0 0 0 0 0 0 0 0 0 0 0 0 0 0 0 0.25 0"/>
<feBlend mode="normal" in2="BackgroundImageFix" result="effect1_dropShadow_9_74"/>
<feBlend mode="normal" in="SourceGraphic" in2="effect1_dropShadow_9_74" result="shape"/>
</filter>
</defs>
</svg>
